<svg width="30" height="30" viewBox="0 0 30 30" fill="none" xmlns="http://www.w3.org/2000/svg">
<path d="M14.9993 10.0067C12.2352 10.0067 10.0067 12.2566 10.0067 14.9993C10.0067 17.7421 12.2566 19.992 14.9993 19.992C17.7421 19.992 19.992 17.7421 19.992 14.9993C19.992 12.2566 17.7421 10.0067 14.9993 10.0067ZM29.9987 14.9993C29.9987 12.9209 29.9987 10.8852 29.8915 8.80675C29.7844 6.40686 29.2273 4.2641 27.4702 2.52846C25.7131 0.771394 23.5918 0.214276 21.1919 0.107138C19.1134 -1.03771e-07 17.0778 0 14.9993 0C12.9209 0 10.8852 -1.03771e-07 8.80675 0.107138C6.40686 0.214276 4.2641 0.771394 2.52846 2.52846C0.771394 4.28552 0.214276 6.40686 0.107138 8.80675C-1.03771e-07 10.8852 0 12.9209 0 14.9993C0 17.0778 -1.03771e-07 19.1134 0.107138 21.1919C0.214276 23.5918 0.771394 25.7346 2.52846 27.4702C4.28552 29.2273 6.40686 29.7844 8.80675 29.8915C10.8852 29.9987 12.9209 29.9987 14.9993 29.9987C17.0778 29.9987 19.1134 29.9987 21.1919 29.8915C23.5918 29.7844 25.7346 29.2273 27.4702 27.4702C29.2273 25.7131 29.7844 23.5918 29.8915 21.1919C30.0201 19.1349 29.9987 17.0778 29.9987 14.9993ZM14.9993 22.6918C10.7352 22.6918 7.30682 19.2634 7.30682 14.9993C7.30682 10.7352 10.7352 7.30682 14.9993 7.30682C19.2634 7.30682 22.6918 10.7352 22.6918 14.9993C22.6918 19.2634 19.2634 22.6918 14.9993 22.6918ZM23.0133 8.78532C22.0276 8.78532 21.2133 7.9925 21.2133 6.9854C21.2133 5.9783 22.0062 5.18548 23.0133 5.18548C24.0204 5.18548 24.8132 5.9783 24.8132 6.9854C24.8186 7.22011 24.7758 7.45343 24.6873 7.6709C24.5988 7.88837 24.4666 8.08535 24.2989 8.24963C24.1346 8.41735 23.9377 8.54954 23.7202 8.63801C23.5027 8.72647 23.2694 8.76932 23.0347 8.76389L23.0133 8.78532Z" fill="#EDEDED"/>
</svg>
