<svg width="13" height="13" viewBox="0 0 13 13" fill="none" xmlns="http://www.w3.org/2000/svg">
<mask id="path-1-inside-1_1963_5" fill="white">
<path d="M6.06667 1.73333V0.433333C6.06667 0.318406 6.11232 0.208186 6.19359 0.12692C6.27485 0.0456546 6.38507 0 6.5 0C6.61493 0 6.72515 0.0456546 6.80641 0.12692C6.88768 0.208186 6.93333 0.318406 6.93333 0.433333V1.73333C6.93333 1.84826 6.88768 1.95848 6.80641 2.03975C6.72515 2.12101 6.61493 2.16667 6.5 2.16667C6.38507 2.16667 6.27485 2.12101 6.19359 2.03975C6.11232 1.95848 6.06667 1.84826 6.06667 1.73333ZM6.5 3.03333C5.81436 3.03333 5.14411 3.23665 4.57402 3.61757C4.00393 3.99849 3.5596 4.53991 3.29722 5.17336C3.03483 5.80681 2.96618 6.50385 3.09994 7.17631C3.23371 7.84878 3.56387 8.46648 4.0487 8.9513C4.53352 9.43613 5.15122 9.76629 5.82369 9.90006C6.49615 10.0338 7.19319 9.96517 7.82664 9.70278C8.46009 9.4404 9.00151 8.99607 9.38243 8.42598C9.76335 7.85589 9.96667 7.18564 9.96667 6.5C9.96566 5.58089 9.6001 4.69971 8.9502 4.04981C8.30029 3.3999 7.41911 3.03434 6.5 3.03333ZM2.72675 3.33992C2.80806 3.42123 2.91834 3.46691 3.03333 3.46691C3.14832 3.46691 3.25861 3.42123 3.33992 3.33992C3.42123 3.25861 3.46691 3.14832 3.46691 3.03333C3.46691 2.91834 3.42123 2.80806 3.33992 2.72675L2.47325 1.86008C2.39194 1.77877 2.28166 1.73309 2.16667 1.73309C2.05168 1.73309 1.94139 1.77877 1.86008 1.86008C1.77877 1.94139 1.73309 2.05168 1.73309 2.16667C1.73309 2.28166 1.77877 2.39194 1.86008 2.47325L2.72675 3.33992ZM2.72675 9.66008L1.86008 10.5267C1.77877 10.6081 1.73309 10.7183 1.73309 10.8333C1.73309 10.9483 1.77877 11.0586 1.86008 11.1399C1.94139 11.2212 2.05168 11.2669 2.16667 11.2669C2.28166 11.2669 2.39194 11.2212 2.47325 11.1399L3.33992 10.2733C3.38018 10.233 3.41211 10.1852 3.4339 10.1326C3.45569 10.08 3.46691 10.0236 3.46691 9.96667C3.46691 9.90973 3.45569 9.85335 3.4339 9.80074C3.41211 9.74814 3.38018 9.70034 3.33992 9.66008C3.29966 9.61982 3.25186 9.58789 3.19926 9.5661C3.14665 9.54431 3.09027 9.53309 3.03333 9.53309C2.9764 9.53309 2.92002 9.54431 2.86741 9.5661C2.81481 9.58789 2.76701 9.61982 2.72675 9.66008ZM9.96667 3.46667C10.0236 3.46671 10.08 3.45554 10.1326 3.43379C10.1852 3.41204 10.233 3.38015 10.2733 3.33992L11.1399 2.47325C11.2212 2.39194 11.2669 2.28166 11.2669 2.16667C11.2669 2.05168 11.2212 1.94139 11.1399 1.86008C11.0586 1.77877 10.9483 1.73309 10.8333 1.73309C10.7183 1.73309 10.6081 1.77877 10.5267 1.86008L9.66008 2.72675C9.59941 2.78735 9.55809 2.8646 9.54134 2.9487C9.52459 3.0328 9.53317 3.11999 9.566 3.19921C9.59882 3.27843 9.65442 3.34613 9.72574 3.39375C9.79706 3.44136 9.88091 3.46673 9.96667 3.46667ZM10.2733 9.66008C10.1919 9.57877 10.0817 9.53309 9.96667 9.53309C9.85168 9.53309 9.74139 9.57877 9.66008 9.66008C9.57877 9.74139 9.53309 9.85168 9.53309 9.96667C9.53309 10.0817 9.57877 10.1919 9.66008 10.2733L10.5267 11.1399C10.567 11.1802 10.6148 11.2121 10.6674 11.2339C10.72 11.2557 10.7764 11.2669 10.8333 11.2669C10.8903 11.2669 10.9467 11.2557 10.9993 11.2339C11.0519 11.2121 11.0997 11.1802 11.1399 11.1399C11.1802 11.0997 11.2121 11.0519 11.2339 10.9993C11.2557 10.9467 11.2669 10.8903 11.2669 10.8333C11.2669 10.7764 11.2557 10.72 11.2339 10.6674C11.2121 10.6148 11.1802 10.567 11.1399 10.5267L10.2733 9.66008ZM2.16667 6.5C2.16667 6.38507 2.12101 6.27485 2.03975 6.19359C1.95848 6.11232 1.84826 6.06667 1.73333 6.06667H0.433333C0.318406 6.06667 0.208186 6.11232 0.12692 6.19359C0.0456546 6.27485 0 6.38507 0 6.5C0 6.61493 0.0456546 6.72515 0.12692 6.80641C0.208186 6.88768 0.318406 6.93333 0.433333 6.93333H1.73333C1.84826 6.93333 1.95848 6.88768 2.03975 6.80641C2.12101 6.72515 2.16667 6.61493 2.16667 6.5ZM6.5 10.8333C6.38507 10.8333 6.27485 10.879 6.19359 10.9603C6.11232 11.0415 6.06667 11.1517 6.06667 11.2667V12.5667C6.06667 12.6816 6.11232 12.7918 6.19359 12.8731C6.27485 12.9543 6.38507 13 6.5 13C6.61493 13 6.72515 12.9543 6.80641 12.8731C6.88768 12.7918 6.93333 12.6816 6.93333 12.5667V11.2667C6.93333 11.1517 6.88768 11.0415 6.80641 10.9603C6.72515 10.879 6.61493 10.8333 6.5 10.8333ZM12.5667 6.06667H11.2667C11.1517 6.06667 11.0415 6.11232 10.9603 6.19359C10.879 6.27485 10.8333 6.38507 10.8333 6.5C10.8333 6.61493 10.879 6.72515 10.9603 6.80641C11.0415 6.88768 11.1517 6.93333 11.2667 6.93333H12.5667C12.6816 6.93333 12.7918 6.88768 12.8731 6.80641C12.9543 6.72515 13 6.61493 13 6.5C13 6.38507 12.9543 6.27485 12.8731 6.19359C12.7918 6.11232 12.6816 6.06667 12.5667 6.06667Z"/>
</mask>
<path d="M6.06667 1.73333V0.433333C6.06667 0.318406 6.11232 0.208186 6.19359 0.12692C6.27485 0.0456546 6.38507 0 6.5 0C6.61493 0 6.72515 0.0456546 6.80641 0.12692C6.88768 0.208186 6.93333 0.318406 6.93333 0.433333V1.73333C6.93333 1.84826 6.88768 1.95848 6.80641 2.03975C6.72515 2.12101 6.61493 2.16667 6.5 2.16667C6.38507 2.16667 6.27485 2.12101 6.19359 2.03975C6.11232 1.95848 6.06667 1.84826 6.06667 1.73333ZM6.5 3.03333C5.81436 3.03333 5.14411 3.23665 4.57402 3.61757C4.00393 3.99849 3.5596 4.53991 3.29722 5.17336C3.03483 5.80681 2.96618 6.50385 3.09994 7.17631C3.23371 7.84878 3.56387 8.46648 4.0487 8.9513C4.53352 9.43613 5.15122 9.76629 5.82369 9.90006C6.49615 10.0338 7.19319 9.96517 7.82664 9.70278C8.46009 9.4404 9.00151 8.99607 9.38243 8.42598C9.76335 7.85589 9.96667 7.18564 9.96667 6.5C9.96566 5.58089 9.6001 4.69971 8.9502 4.04981C8.30029 3.3999 7.41911 3.03434 6.5 3.03333ZM2.72675 3.33992C2.80806 3.42123 2.91834 3.46691 3.03333 3.46691C3.14832 3.46691 3.25861 3.42123 3.33992 3.33992C3.42123 3.25861 3.46691 3.14832 3.46691 3.03333C3.46691 2.91834 3.42123 2.80806 3.33992 2.72675L2.47325 1.86008C2.39194 1.77877 2.28166 1.73309 2.16667 1.73309C2.05168 1.73309 1.94139 1.77877 1.86008 1.86008C1.77877 1.94139 1.73309 2.05168 1.73309 2.16667C1.73309 2.28166 1.77877 2.39194 1.86008 2.47325L2.72675 3.33992ZM2.72675 9.66008L1.86008 10.5267C1.77877 10.6081 1.73309 10.7183 1.73309 10.8333C1.73309 10.9483 1.77877 11.0586 1.86008 11.1399C1.94139 11.2212 2.05168 11.2669 2.16667 11.2669C2.28166 11.2669 2.39194 11.2212 2.47325 11.1399L3.33992 10.2733C3.38018 10.233 3.41211 10.1852 3.4339 10.1326C3.45569 10.08 3.46691 10.0236 3.46691 9.96667C3.46691 9.90973 3.45569 9.85335 3.4339 9.80074C3.41211 9.74814 3.38018 9.70034 3.33992 9.66008C3.29966 9.61982 3.25186 9.58789 3.19926 9.5661C3.14665 9.54431 3.09027 9.53309 3.03333 9.53309C2.9764 9.53309 2.92002 9.54431 2.86741 9.5661C2.81481 9.58789 2.76701 9.61982 2.72675 9.66008ZM9.96667 3.46667C10.0236 3.46671 10.08 3.45554 10.1326 3.43379C10.1852 3.41204 10.233 3.38015 10.2733 3.33992L11.1399 2.47325C11.2212 2.39194 11.2669 2.28166 11.2669 2.16667C11.2669 2.05168 11.2212 1.94139 11.1399 1.86008C11.0586 1.77877 10.9483 1.73309 10.8333 1.73309C10.7183 1.73309 10.6081 1.77877 10.5267 1.86008L9.66008 2.72675C9.59941 2.78735 9.55809 2.8646 9.54134 2.9487C9.52459 3.0328 9.53317 3.11999 9.566 3.19921C9.59882 3.27843 9.65442 3.34613 9.72574 3.39375C9.79706 3.44136 9.88091 3.46673 9.96667 3.46667ZM10.2733 9.66008C10.1919 9.57877 10.0817 9.53309 9.96667 9.53309C9.85168 9.53309 9.74139 9.57877 9.66008 9.66008C9.57877 9.74139 9.53309 9.85168 9.53309 9.96667C9.53309 10.0817 9.57877 10.1919 9.66008 10.2733L10.5267 11.1399C10.567 11.1802 10.6148 11.2121 10.6674 11.2339C10.72 11.2557 10.7764 11.2669 10.8333 11.2669C10.8903 11.2669 10.9467 11.2557 10.9993 11.2339C11.0519 11.2121 11.0997 11.1802 11.1399 11.1399C11.1802 11.0997 11.2121 11.0519 11.2339 10.9993C11.2557 10.9467 11.2669 10.8903 11.2669 10.8333C11.2669 10.7764 11.2557 10.72 11.2339 10.6674C11.2121 10.6148 11.1802 10.567 11.1399 10.5267L10.2733 9.66008ZM2.16667 6.5C2.16667 6.38507 2.12101 6.27485 2.03975 6.19359C1.95848 6.11232 1.84826 6.06667 1.73333 6.06667H0.433333C0.318406 6.06667 0.208186 6.11232 0.12692 6.19359C0.0456546 6.27485 0 6.38507 0 6.5C0 6.61493 0.0456546 6.72515 0.12692 6.80641C0.208186 6.88768 0.318406 6.93333 0.433333 6.93333H1.73333C1.84826 6.93333 1.95848 6.88768 2.03975 6.80641C2.12101 6.72515 2.16667 6.61493 2.16667 6.5ZM6.5 10.8333C6.38507 10.8333 6.27485 10.879 6.19359 10.9603C6.11232 11.0415 6.06667 11.1517 6.06667 11.2667V12.5667C6.06667 12.6816 6.11232 12.7918 6.19359 12.8731C6.27485 12.9543 6.38507 13 6.5 13C6.61493 13 6.72515 12.9543 6.80641 12.8731C6.88768 12.7918 6.93333 12.6816 6.93333 12.5667V11.2667C6.93333 11.1517 6.88768 11.0415 6.80641 10.9603C6.72515 10.879 6.61493 10.8333 6.5 10.8333ZM12.5667 6.06667H11.2667C11.1517 6.06667 11.0415 6.11232 10.9603 6.19359C10.879 6.27485 10.8333 6.38507 10.8333 6.5C10.8333 6.61493 10.879 6.72515 10.9603 6.80641C11.0415 6.88768 11.1517 6.93333 11.2667 6.93333H12.5667C12.6816 6.93333 12.7918 6.88768 12.8731 6.80641C12.9543 6.72515 13 6.61493 13 6.5C13 6.38507 12.9543 6.27485 12.8731 6.19359C12.7918 6.11232 12.6816 6.06667 12.5667 6.06667Z" stroke="#CCCCCC" stroke-width="2" mask="url(#path-1-inside-1_1963_5)"/>
</svg>
