<svg width="13" height="13" viewBox="0 0 13 13" fill="none" xmlns="http://www.w3.org/2000/svg">
<path d="M4.87148 0.712801C4.73766 0.926282 4.6187 1.14939 4.51568 1.38059C4.22164 2.04052 4.06353 2.75291 4.05078 3.47527C4.03804 4.19763 4.17092 4.91515 4.4415 5.58504C4.71208 6.25493 5.11481 6.86346 5.62568 7.37432C6.13654 7.88519 6.74507 8.28792 7.41496 8.5585C8.08485 8.82908 8.80237 8.96196 9.52473 8.94922C10.2471 8.93647 10.9595 8.77836 11.6194 8.48432C11.8502 8.38147 12.073 8.26273 12.2862 8.12918C11.9921 9.16972 11.4201 10.1197 10.6207 10.8712C9.50699 11.9182 8.03585 12.5009 6.50725 12.5007H6.50716C3.18907 12.5007 0.5 9.81151 0.5 6.49414C0.5 3.74346 2.34895 1.42465 4.87148 0.712801Z" stroke="white"/>
</svg>
