<svg width="32" height="32" viewBox="0 0 32 32" fill="none" xmlns="http://www.w3.org/2000/svg">
<path d="M7.9375 9.1875C8 9.6875 8.4375 10 8.9375 10H9.9375C10.5625 10 11.0625 9.5 10.9375 8.875C10.75 7.125 9.9375 5.5 8.6875 4.25C7.75 3.3125 7.1875 2.125 7 0.875C6.9375 0.375 6.5625 0 6 0H5C4.375 0 3.9375 0.5625 4 1.125C4.25 3.125 5.125 5 6.5 6.4375C7.25 7.1875 7.75 8.125 7.9375 9.1875ZM14.9375 9.1875C15 9.6875 15.4375 10 15.9375 10H16.9375C17.5625 10 18.0625 9.5 17.9375 8.875C17.75 7.125 16.9375 5.5 15.6875 4.25C14.75 3.3125 14.1875 2.125 14 0.875C13.9375 0.375 13.5625 0 13 0H12C11.375 0 10.875 0.5625 11 1.125C11.25 3.125 12.125 5 13.5 6.4375C14.25 7.1875 14.75 8.125 14.9375 9.1875ZM25 12H2C0.875 12 0 12.9375 0 14V26C0 29.3125 2.6875 32 6 32H18C21.3125 32 24 29.3125 24 26H25C28.8125 26 32 22.875 32 19C32 15.1875 28.8125 12 25 12ZM25 22H24V16H25C26.625 16 28 17.375 28 19C28 20.6875 26.625 22 25 22Z" fill="#EDEDED"/>
</svg>
