<svg width="30" height="30" viewBox="0 0 30 30" fill="none" xmlns="http://www.w3.org/2000/svg">
<path fill-rule="evenodd" clip-rule="evenodd" d="M6 0C2.68629 0 0 2.68629 0 6V24C0 27.3137 2.68629 30 6 30H24C27.3137 30 30 27.3137 30 24V6C30 2.68629 27.3137 0 24 0H6ZM23.207 10.0074C24.0086 9.90488 24.7823 9.69049 25.5 9.36424C24.9594 10.1752 24.2882 10.8836 23.5053 11.4429C23.5146 11.62 23.5146 11.7878 23.5146 11.9649C23.5146 17.25 19.4785 23.3461 12.1334 23.3461C9.87763 23.3461 7.77103 22.6843 6 21.5471C6.31692 21.5844 6.63384 21.603 6.95077 21.603C8.75349 21.6117 10.5055 21.0069 11.919 19.8879C11.0851 19.8727 10.277 19.5966 9.60826 19.0983C8.93948 18.6001 8.44366 17.9048 8.19049 17.1102C8.78714 17.2278 9.40292 17.2055 9.98948 17.0449C8.16252 16.6814 6.78298 15.0595 6.78298 13.1207V13.0927C7.32361 13.3724 7.93881 13.5588 8.60062 13.5588C7.51936 12.8597 6.82027 11.6293 6.82027 10.2404C6.82027 9.51338 7.01601 8.82361 7.3609 8.23638C9.32768 10.6506 12.2825 12.2445 15.6009 12.4123C15.5356 12.1233 15.4983 11.8157 15.4983 11.4988C15.4983 9.28967 17.288 7.5 19.4785 7.5C20.653 7.5 21.6876 7.96606 22.424 8.76769C23.3282 8.58126 24.1857 8.25502 24.9594 7.78896C24.6611 8.7304 24.0272 9.51338 23.207 10.0074Z" fill="#333333"/>
</svg>
